<svg id="_37._Receipt" data-name="37. Receipt" xmlns="http://www.w3.org/2000/svg" width="30.199" height="30.204" viewBox="0 0 30.199 30.204">
  <path id="Path_18" data-name="Path 18" d="M14.156,28.311H2.831A2.831,2.831,0,0,1,0,25.48V.943A.95.95,0,0,1,1.614.273L3.1,1.774a.944.944,0,0,0,1.34,0L5.936.273a.944.944,0,0,1,1.34,0l1.491,1.5a.944.944,0,0,0,1.34,0L11.6.273a.944.944,0,0,1,1.34,0l1.491,1.5a.944.944,0,0,0,1.34,0l1.491-1.5a.944.944,0,0,1,1.34,0l1.491,1.5a.944.944,0,0,0,1.34,0l1.491-1.5a.95.95,0,0,1,1.614.67V14.155a.944.944,0,0,1-1.887,0V3.218A2.9,2.9,0,0,1,18.761,3.1l-.83-.83-.83.83a2.888,2.888,0,0,1-4,0l-.83-.83-.83.83a2.888,2.888,0,0,1-4,0l-.83-.83-.83.83a2.9,2.9,0,0,1-3.888.113V25.48a.944.944,0,0,0,.944.944H14.156a.944.944,0,1,1,0,1.887Z" transform="translate(0 0.006)" fill="#fdfdfd"/>
  <path id="Path_19" data-name="Path 19" d="M14.437,24.887H5.944a.944.944,0,0,1,0-1.887h8.493a.944.944,0,1,1,0,1.887Z" transform="translate(-0.281 -1.289)" fill="#fdfdfd"/>
  <path id="Path_20" data-name="Path 20" d="M14.437,20.887H5.944a.944.944,0,0,1,0-1.887h8.493a.944.944,0,1,1,0,1.887Z" transform="translate(-0.281 -1.064)" fill="#fdfdfd"/>
  <path id="Path_21" data-name="Path 21" d="M16.325,16.887H5.944a.944.944,0,0,1,0-1.887H16.325a.944.944,0,0,1,0,1.887Z" transform="translate(-0.281 -0.839)" fill="#fdfdfd"/>
  <path id="Path_22" data-name="Path 22" d="M19.156,12.887H5.944a.944.944,0,0,1,0-1.887H19.156a.944.944,0,1,1,0,1.887Z" transform="translate(-0.281 -0.614)" fill="#fdfdfd"/>
  <path id="Path_23" data-name="Path 23" d="M19.156,8.887H5.944A.944.944,0,0,1,5.944,7H19.156a.944.944,0,1,1,0,1.887Z" transform="translate(-0.281 -0.388)" fill="#fdfdfd"/>
  <path id="Path_24" data-name="Path 24" d="M23,19h3.775v2.831a.944.944,0,0,1-.944.944H23.944A.944.944,0,0,1,23,21.831Z" transform="translate(-1.294 -1.064)" fill="#fdfdfd"/>
  <path id="Path_25" data-name="Path 25" d="M28.381,31.212h-7.55A2.831,2.831,0,0,1,18,28.381v-7.55A2.831,2.831,0,0,1,20.831,18h7.55a2.831,2.831,0,0,1,2.831,2.831v7.55A2.831,2.831,0,0,1,28.381,31.212Zm-7.55-11.325a.944.944,0,0,0-.944.944v7.55a.944.944,0,0,0,.944.944h7.55a.944.944,0,0,0,.944-.944v-7.55a.944.944,0,0,0-.944-.944Z" transform="translate(-1.013 -1.008)" fill="#fdfdfd"/>
  <path id="Path_26" data-name="Path 26" d="M23.887,27.887h-.944a.944.944,0,1,1,0-1.887h.944a.944.944,0,1,1,0,1.887Z" transform="translate(-1.238 -1.458)" fill="#fdfdfd"/>
</svg>
