<svg id="call-svgrepo-com" xmlns="http://www.w3.org/2000/svg" width="26.342" height="30.124" viewBox="0 0 26.342 30.124">
  <path id="Path_30" data-name="Path 30" d="M25.6,22.373c-.809-1.019-2.123-2.495-3.247-2.635a3.9,3.9,0,0,0-2.245,1.017c-.151.076-1.319.771-1.461.813a3.808,3.808,0,0,1-3.312-.6A43.079,43.079,0,0,1,11.75,17.1a41.778,41.778,0,0,1-2.932-4.368,3.621,3.621,0,0,1,.215-3.3c.072-.119.941-1.013,1.136-1.221l.028.034c.72-.6,1.474-1.219,1.559-1.884.14-1.108-.992-2.72-1.8-3.741S7.894-.2,6.187.056A4.685,4.685,0,0,0,4.444.7L4.429.682c-.011.008-.064.049-.091.07s-.032.015-.047.025L4.3.784c-.314.242-1.21.911-1.312,1C1.877,2.771.21,5.09,1.5,9.261A36.05,36.05,0,0,0,7.274,19.684l-.015.013c.136.178.276.338.418.51s.263.35.4.524l.019-.013a36.72,36.72,0,0,0,8.863,8.065c3.8,2.253,6.5,1.238,7.748.431.117-.077,1.009-.771,1.312-1l.008.008a.307.307,0,0,1,.034-.038l.081-.062-.011-.015a4.545,4.545,0,0,0,1.077-1.51c.663-1.567-.794-3.2-1.6-4.223Z" transform="translate(-1.032 -0.032)" fill="#fff" fill-rule="evenodd"/>
</svg>
