<svg xmlns="http://www.w3.org/2000/svg" xmlns:xlink="http://www.w3.org/1999/xlink" width="152" height="53" viewBox="0 0 152 53">
  <defs>
    <linearGradient id="linear-gradient" x1="1.53" y1="8.443" x2="-0.093" y2="7.606" gradientUnits="objectBoundingBox">
      <stop offset="0" stop-color="#00a0ff"/>
      <stop offset="0.007" stop-color="#00a1ff"/>
      <stop offset="0.26" stop-color="#00beff"/>
      <stop offset="0.512" stop-color="#00d2ff"/>
      <stop offset="0.76" stop-color="#00dfff"/>
      <stop offset="1" stop-color="#00e3ff"/>
    </linearGradient>
    <linearGradient id="linear-gradient-2" x1="2.154" y1="22.125" x2="-0.822" y2="22.125" gradientUnits="objectBoundingBox">
      <stop offset="0" stop-color="#ffe000"/>
      <stop offset="0.409" stop-color="#ffbd00"/>
      <stop offset="0.775" stop-color="orange"/>
      <stop offset="1" stop-color="#ff9c00"/>
    </linearGradient>
    <linearGradient id="linear-gradient-3" x1="1.384" y1="15.16" x2="-0.321" y2="12.948" gradientUnits="objectBoundingBox">
      <stop offset="0" stop-color="#ff3a44"/>
      <stop offset="1" stop-color="#c31162"/>
    </linearGradient>
    <linearGradient id="linear-gradient-4" x1="0.071" y1="16.315" x2="0.832" y2="15.327" gradientUnits="objectBoundingBox">
      <stop offset="0" stop-color="#32a071"/>
      <stop offset="0.068" stop-color="#2da771"/>
      <stop offset="0.476" stop-color="#15cf74"/>
      <stop offset="0.801" stop-color="#06e775"/>
      <stop offset="1" stop-color="#00f076"/>
    </linearGradient>
  </defs>
  <g id="Group_27" data-name="Group 27" transform="translate(-442 -3084)">
    <rect id="Rectangle_38" data-name="Rectangle 38" width="152" height="53" rx="6" transform="translate(442 3084)" fill="#fff"/>
    <g id="Group_2268" data-name="Group 2268" transform="translate(-437.996 2964.003)">
      <g id="Group_3" data-name="Group 3" transform="translate(900 135)">
        <path id="path20" d="M57.066,19.787a2.471,2.471,0,0,1-.684,1.824,2.711,2.711,0,0,1-2.035.81,2.813,2.813,0,0,1-2.034-.819,2.891,2.891,0,0,1,0-4.07,2.8,2.8,0,0,1,2.034-.823,2.925,2.925,0,0,1,1.135.231,2.248,2.248,0,0,1,.864.609l-.482.481a1.888,1.888,0,0,0-1.518-.645,2.125,2.125,0,0,0-1.512.6,2.277,2.277,0,0,0,0,3.155,2.145,2.145,0,0,0,1.512.6,2.115,2.115,0,0,0,1.544-.609,1.705,1.705,0,0,0,.463-1.108H54.347v-.658h2.678a1.85,1.85,0,0,1,.041.422Z" transform="translate(-22.548 -16.709)"/>
        <path id="path24" d="M61.892,17.516H59.377v1.731h2.268V19.9H59.377v1.731h2.515V22.3H58.665V16.845h3.227Z" transform="translate(-23.126 -16.72)"/>
        <path id="path28" d="M65.238,22.307h-.712V17.516H62.983v-.671h3.8v.671H65.238Z" transform="translate(-23.473 -16.72)"/>
        <path id="path32" d="M70.1,22.307V16.845h.711v5.462Z" transform="translate(-24.046 -16.72)"/>
        <path id="path36" d="M74.106,22.307H73.4V17.516H71.851v-.671h3.8v.671H74.106Z" transform="translate(-24.187 -16.72)"/>
        <path id="path40" d="M83.383,21.593a2.9,2.9,0,0,1-4.056,0,2.932,2.932,0,0,1,0-4.057,2.886,2.886,0,0,1,4.051,0,2.921,2.921,0,0,1,0,4.052Zm-3.529-.458a2.143,2.143,0,0,0,3,0,2.309,2.309,0,0,0,0-3.141,2.143,2.143,0,0,0-3,0A2.309,2.309,0,0,0,79.854,21.135Z" transform="translate(-24.722 -16.709)"/>
        <path id="path44" d="M85.781,22.307V16.845h.864l2.687,4.248h.031l-.031-1.05v-3.2h.711V22.3H89.3l-2.814-4.457h-.031l.031,1.055v3.4H85.78Z" transform="translate(-25.306 -16.72)"/>
        <path id="path46" d="M76.138-28.361a3.843,3.843,0,0,0-2.791,1.1A3.843,3.843,0,0,0,72.2-24.485a3.853,3.853,0,0,0,1.149,2.767,3.853,3.853,0,0,0,2.785,1.107,3.854,3.854,0,0,0,2.787-1.106,3.854,3.854,0,0,0,1.151-2.768,3.844,3.844,0,0,0-1.146-2.771,3.844,3.844,0,0,0-2.788-1.1Zm0,6.224a2.252,2.252,0,0,1-1.6-.708,2.252,2.252,0,0,1-.61-1.64,2.241,2.241,0,0,1,.606-1.644,2.241,2.241,0,0,1,1.6-.705,2.245,2.245,0,0,1,1.606.7,2.245,2.245,0,0,1,.609,1.644,2.255,2.255,0,0,1-.613,1.641,2.255,2.255,0,0,1-1.6.707Zm-8.583-6.224a3.84,3.84,0,0,0-2.789,1.1,3.84,3.84,0,0,0-1.145,2.772,3.85,3.85,0,0,0,1.149,2.768,3.85,3.85,0,0,0,2.785,1.106,3.851,3.851,0,0,0,2.785-1.106,3.851,3.851,0,0,0,1.149-2.768,3.841,3.841,0,0,0-1.145-2.772,3.841,3.841,0,0,0-2.789-1.1Zm0,6.224a2.254,2.254,0,0,1-1.6-.707,2.254,2.254,0,0,1-.612-1.641,2.244,2.244,0,0,1,.609-1.645,2.244,2.244,0,0,1,1.606-.7,2.241,2.241,0,0,1,1.6.705,2.241,2.241,0,0,1,.606,1.644,2.252,2.252,0,0,1-.61,1.64,2.252,2.252,0,0,1-1.6.708ZM57.341-27.173v1.647H61.32a3.4,3.4,0,0,1-.9,2.068,4.112,4.112,0,0,1-3.074,1.2,4.343,4.343,0,0,1-3.1-1.274,4.343,4.343,0,0,1-1.269-3.1,4.343,4.343,0,0,1,1.269-3.094A4.343,4.343,0,0,1,57.341-31a4.246,4.246,0,0,1,3,1.174l1.174-1.16a5.84,5.84,0,0,0-4.172-1.659,6.14,6.14,0,0,0-6.179,6.019,6.14,6.14,0,0,0,6.179,6.019,5.6,5.6,0,0,0,4.249-1.69,5.393,5.393,0,0,0,1.44-3.844,5.447,5.447,0,0,0-.09-1.028h-5.6ZM99.106-25.9a3.632,3.632,0,0,0-3.358-2.464,3.7,3.7,0,0,0-2.68,1.145,3.7,3.7,0,0,0-1.02,2.73,3.813,3.813,0,0,0,1.122,2.763,3.813,3.813,0,0,0,2.767,1.111,3.9,3.9,0,0,0,3.268-1.717l-1.337-.88a2.247,2.247,0,0,1-1.931,1.072,2,2,0,0,1-1.9-1.174l5.244-2.144L99.1-25.9ZM93.76-24.61a2.137,2.137,0,0,1,.55-1.559,2.137,2.137,0,0,1,1.5-.7,1.526,1.526,0,0,1,1.459.822L93.761-24.61ZM89.5-20.847h1.724V-32.235H89.5ZM86.674-27.5h-.058a2.731,2.731,0,0,0-2.061-.863,3.875,3.875,0,0,0-3.755,3.89,3.859,3.859,0,0,0,3.759,3.862,2.691,2.691,0,0,0,2.061-.88h.058v.556a2,2,0,0,1-.507,1.634,2,2,0,0,1-1.585.644,2.174,2.174,0,0,1-1.976-1.384l-1.5.618a3.74,3.74,0,0,0,3.475,2.291c2.021,0,3.726-1.175,3.726-4.035v-6.958H86.674ZM84.7-22.137a2.235,2.235,0,0,1-1.583-.709,2.235,2.235,0,0,1-.6-1.627,2.25,2.25,0,0,1,.594-1.64,2.25,2.25,0,0,1,1.588-.722,2.193,2.193,0,0,1,1.553.734,2.193,2.193,0,0,1,.547,1.628,2.177,2.177,0,0,1-.552,1.616,2.177,2.177,0,0,1-1.548.72Zm22.473-10.1H103.05v11.388h1.719v-4.315h2.4a3.634,3.634,0,0,0,2.631-.977,3.634,3.634,0,0,0,1.151-2.56A3.636,3.636,0,0,0,109.8-31.26a3.636,3.636,0,0,0-2.631-.977Zm.045,5.489h-2.449v-3.905h2.449a1.987,1.987,0,0,1,2.016,1.952,2,2,0,0,1-2.013,1.955Zm10.627-1.637a3.231,3.231,0,0,0-3.065,1.744l1.526.632a1.632,1.632,0,0,1,1.571-.837,1.652,1.652,0,0,1,1.81,1.465v.12a3.813,3.813,0,0,0-1.8-.441c-1.643,0-3.317.894-3.317,2.562a2.649,2.649,0,0,0,.9,1.86,2.649,2.649,0,0,0,1.961.649,2.44,2.44,0,0,0,2.2-1.116h.059v.88h1.66v-4.369c0-2.016-1.524-3.146-3.5-3.146Zm-.207,6.241c-.562,0-1.346-.276-1.346-.965,0-.881.977-1.22,1.823-1.22a3.113,3.113,0,0,1,1.572.383,2.079,2.079,0,0,1-2.046,1.8Zm9.758-5.991L125.423-23.2h-.059l-2.043-4.937h-1.854l3.07,6.9L122.786-17.4h1.8l4.73-10.738Zm-15.5,7.286h1.724V-32.235H111.9Z" transform="translate(-22.523 41.924)"/>
        <path id="path64" d="M20.446-42.073a1.8,1.8,0,0,0-.427,1.281v20.148a1.8,1.8,0,0,0,.427,1.281l.067.061L31.937-30.587v-.266L20.513-42.139Z" transform="translate(-20.019 42.687)" fill="url(#linear-gradient)"/>
        <path id="path78" d="M36.782-26.166l-3.8-3.764v-.27l3.808-3.764.085.049,4.51,2.536c1.287.72,1.287,1.9,0,2.628l-4.51,2.532-.09.049Z" transform="translate(-21.061 42.03)" fill="url(#linear-gradient-2)"/>
        <path id="path88" d="M35.867-25.874l-3.893-3.848L20.484-18.364a1.515,1.515,0,0,0,1.917.054l13.466-7.563" transform="translate(-20.056 41.689)" fill="url(#linear-gradient-3)"/>
        <path id="path104" d="M35.867-34.594,22.4-42.157a1.52,1.52,0,0,0-1.917.058l11.49,11.353Z" transform="translate(-20.056 42.713)" fill="url(#linear-gradient-4)"/>
      </g>
    </g>
  </g>
</svg>
