<svg xmlns="http://www.w3.org/2000/svg" width="42" height="42" viewBox="0 0 42 42">
  <g id="headphones" transform="translate(1 1)">
    <path id="Path_4" data-name="Path 4" d="M3,40V25.2C3,12.939,11.954,3,23,3s20,9.939,20,22.2V40" transform="translate(-3 -3)" fill="none" stroke="#fff" stroke-linecap="round" stroke-linejoin="round" stroke-width="2"/>
    <path id="Path_5" data-name="Path 5" d="M43,19c0,1.1-1.99,2-4.444,2H36.333c-2.455,0-4.444-.9-4.444-2V16c0-1.1,1.99-2,4.444-2H43ZM3,19c0,1.1,1.99,2,4.444,2H9.667c2.455,0,4.444-.9,4.444-2V16c0-1.1-1.99-2-4.444-2H3Z" transform="translate(-3 19)" fill="none" stroke="#fff" stroke-linecap="round" stroke-linejoin="round" stroke-width="2"/>
  </g>
</svg>
