<svg id="location-svgrepo-com" xmlns="http://www.w3.org/2000/svg" width="20.251" height="34.555" viewBox="0 0 20.251 34.555">
  <path id="Path_27" data-name="Path 27" d="M64.769,0A10.137,10.137,0,0,0,54.643,10.126a10.033,10.033,0,0,0,.98,4.35c.013.029.027.058.041.087l7.651,14.813a1.636,1.636,0,0,0,2.907,0l7.648-14.809c.013-.026.026-.051.037-.077a10.032,10.032,0,0,0,.986-4.364A10.137,10.137,0,0,0,64.769,0Zm0,15.426a5.3,5.3,0,1,1,5.3-5.3A5.306,5.306,0,0,1,64.769,15.426Z" transform="translate(-54.643 0)" fill="#fff"/>
  <path id="Path_28" data-name="Path 28" d="M103.49,249.018h-7.8a.982.982,0,0,0,0,1.963h7.8a.982.982,0,0,0,0-1.963Z" transform="translate(-89.464 -216.426)" fill="#fff"/>
</svg>
