<svg id="mail-svgrepo-com" xmlns="http://www.w3.org/2000/svg" width="32.646" height="23.601" viewBox="0 0 32.646 23.601">
  <g id="Group_32" data-name="Group 32">
    <path id="Path_29" data-name="Path 29" d="M31.588,63.154H1.058A1.058,1.058,0,0,0,0,64.212V85.7a1.058,1.058,0,0,0,1.058,1.058h30.53A1.058,1.058,0,0,0,32.646,85.7V64.212A1.058,1.058,0,0,0,31.588,63.154Zm-2.7,18.155a1.074,1.074,0,1,1-1.408,1.622l-7.552-6.554-2.9,2.518a1.074,1.074,0,0,1-1.408,0l-2.9-2.518L5.166,82.931a1.074,1.074,0,1,1-1.408-1.622l7.321-6.354L3.757,68.6a1.074,1.074,0,1,1,1.408-1.622l11.157,9.684,11.157-9.684A1.074,1.074,0,1,1,28.889,68.6l-7.321,6.354Z" transform="translate(0 -63.154)" fill="#fff"/>
  </g>
</svg>
