<svg xmlns="http://www.w3.org/2000/svg" width="59.185" height="59.185" viewBox="0 0 59.185 59.185">
  <g id="Online_chat" data-name="Online chat" transform="translate(-1279.75 -638.563)">
    <path id="message-circle" d="M60.685,30.24A26.856,26.856,0,0,1,57.8,42.418,27.24,27.24,0,0,1,33.445,57.48,26.856,26.856,0,0,1,21.267,54.6L3,60.685,9.089,42.418A26.856,26.856,0,0,1,6.2,30.24,27.24,27.24,0,0,1,21.267,5.884,26.856,26.856,0,0,1,33.445,3h1.6A27.176,27.176,0,0,1,60.685,28.638Z" transform="translate(1277.5 699.998) rotate(-90)" fill="#ee4967" stroke="#fff" stroke-linecap="round" stroke-linejoin="round" stroke-width="1.5"/>
    <circle id="Ellipse_13" data-name="Ellipse 13" cx="3.5" cy="3.5" r="3.5" transform="translate(1292 664)" fill="#fff"/>
    <circle id="Ellipse_14" data-name="Ellipse 14" cx="3.5" cy="3.5" r="3.5" transform="translate(1305 664)" fill="#fff"/>
    <circle id="Ellipse_15" data-name="Ellipse 15" cx="3.5" cy="3.5" r="3.5" transform="translate(1318 664)" fill="#fff"/>
  </g>
</svg>
