<svg xmlns="http://www.w3.org/2000/svg" width="29.717" height="22.795" viewBox="0 0 29.717 22.795">
  <path id="Path_9" data-name="Path 9" d="M32.361,11.132A9.529,9.529,0,0,1,35,18.315c0,5.833-4.1,11.062-10.05,13.647l-1.488-2.3c5.558-3.007,6.645-6.908,7.078-9.368a5.967,5.967,0,0,1-3.215.518,5.833,5.833,0,0,1,.457-11.648A6.452,6.452,0,0,1,32.361,11.132Zm-16.667,0a9.529,9.529,0,0,1,2.638,7.183c0,5.833-4.1,11.062-10.05,13.647l-1.488-2.3c5.558-3.007,6.645-6.908,7.078-9.368a5.967,5.967,0,0,1-3.215.518,5.833,5.833,0,0,1,.458-11.648,6.452,6.452,0,0,1,4.58,1.965Z" transform="translate(-5.283 -9.167)" fill="#ee4967"/>
</svg>
